<svg width="200" height="200" viewBox="0 0 200 200" fill="none" xmlns="http://www.w3.org/2000/svg">
<path fill-rule="evenodd" clip-rule="evenodd" d="M39.4437 7.14681C30.5253 -1.77159 16.0657 -1.77159 7.1473 7.14681C-1.7711 16.0652 -1.77111 30.5248 7.14729 39.4432L67.7031 99.999L7.1473 160.555C-1.7711 169.473 -1.77108 183.933 7.14732 192.851C16.0657 201.77 30.5253 201.77 39.4437 192.851L99.9995 132.295L160.555 192.851C169.474 201.77 183.933 201.77 192.852 192.851C201.77 183.933 201.77 169.473 192.852 160.555L132.296 99.999L192.852 39.4432C201.77 30.5248 201.77 16.0652 192.852 7.14681C183.933 -1.77159 169.474 -1.77159 160.555 7.14681L99.9995 67.7026L39.4437 7.14681Z" fill="url(#paint0_linear)"/>
<defs>
<linearGradient id="paint0_linear" x1="172.5" y1="13" x2="61.9998" y2="139" gradientUnits="userSpaceOnUse">
<stop stop-color="#F4721C"/>
<stop offset="1" stop-color="#FFD708"/>
</linearGradient>
</defs>
</svg>
