<svg width="107" height="29" viewBox="0 0 107 29" fill="none" xmlns="http://www.w3.org/2000/svg">
<path d="M56.8651 23.496V28.9819H53.5733C51.2268 28.9819 49.3977 28.4091 48.0874 27.2605C46.7756 26.1135 46.1197 24.2397 46.1197 21.6422V13.2417H43.5469V7.86827H46.1197V2.72266H52.5894V7.86827H56.8266V13.2417H52.5894V21.7177C52.5894 22.3489 52.7403 22.8032 53.0436 23.0803C53.3469 23.3574 53.8504 23.496 54.5571 23.496H56.8651Z" fill="white"/>
<path d="M93.662 10.0256C95.214 11.6145 95.9885 13.8224 95.9885 16.6477V28.9837H89.5557V17.5192C89.5557 16.1566 89.197 15.1034 88.4779 14.3598C87.7589 13.6161 86.7689 13.2435 85.5079 13.2435C84.2469 13.2435 83.2569 13.6161 82.5378 14.3598C81.8188 15.1034 81.4601 16.1566 81.4601 17.5192V28.9837H75.0273V17.5192C75.0273 16.1566 74.6685 15.1034 73.9495 14.3598C73.2305 13.6161 72.2405 13.2435 70.9795 13.2435C69.7185 13.2435 68.7285 13.6161 68.0094 14.3598C67.2904 15.1034 66.9316 16.1566 66.9316 17.5192V28.9837H60.4619V7.86849H66.9316V10.5167C67.5875 9.63451 68.4452 8.93395 69.5045 8.41662C70.5638 7.89929 71.7616 7.64062 73.0996 7.64062C74.6885 7.64062 76.1081 7.98089 77.3568 8.66297C78.6055 9.34351 79.5832 10.315 80.2899 11.576C81.0212 10.4167 82.0174 9.46976 83.2784 8.73842C84.5394 8.00707 85.9144 7.64062 87.4032 7.64062C90.0238 7.64062 92.1116 8.4351 93.662 10.0256Z" fill="white"/>
<path d="M107 7.86914V28.9828H100.53V7.86914H107Z" fill="white"/>
<path d="M103.765 0C105.551 0 107 1.44884 107 3.23487C107 5.0209 105.551 6.46973 103.765 6.46973C101.979 6.46973 100.53 5.0209 100.53 3.23487C100.529 1.44884 101.978 0 103.765 0Z" fill="white"/>
<path d="M15.8127 19.4902H29.9931C31.0709 19.4902 31.9454 20.3648 31.9454 21.4425C31.9454 22.5203 31.0709 23.3949 29.9931 23.3949H15.8127C14.7349 23.3949 13.8604 22.5203 13.8604 21.4425C13.8619 20.3632 14.7349 19.4902 15.8127 19.4902Z" fill="white"/>
<path d="M7.35173 19.4902H10.5358C11.6136 19.4902 12.4881 20.3648 12.4881 21.4425C12.4881 22.5203 11.6136 23.3949 10.5358 23.3949H7.35173C6.27395 23.3949 5.39941 22.5203 5.39941 21.4425C5.40095 20.3632 6.27395 19.4902 7.35173 19.4902Z" fill="white"/>
<path d="M35.4049 17.804H1.95231C0.874538 17.804 0 16.9295 0 15.8517C0 14.774 0.874538 13.8994 1.95231 13.8994H35.4049C36.4827 13.8994 37.3572 14.774 37.3572 15.8517C37.3557 16.9295 36.4827 17.804 35.4049 17.804Z" fill="white"/>
<path d="M21.5322 12.2142H7.35173C6.27395 12.2142 5.39941 11.3397 5.39941 10.2619C5.39941 9.18411 6.27395 8.30957 7.35173 8.30957H21.5322C22.61 8.30957 23.4845 9.18411 23.4845 10.2619C23.4845 11.3397 22.61 12.2142 21.5322 12.2142Z" fill="white"/>
<path d="M13.112 6.62631C12.0342 6.62631 11.1597 5.75177 11.1597 4.67399C11.1597 3.59622 12.0342 2.72168 13.112 2.72168C14.1898 2.72168 15.0643 3.59622 15.0643 4.67399C15.0628 5.75177 14.1898 6.62631 13.112 6.62631Z" fill="white"/>
<path d="M13.112 28.9827C12.0342 28.9827 11.1597 28.1082 11.1597 27.0304C11.1597 25.9527 12.0342 25.0781 13.112 25.0781C14.1898 25.0781 15.0643 25.9527 15.0643 27.0304C15.0628 28.1082 14.1898 28.9827 13.112 28.9827Z" fill="white"/>
<path d="M29.9928 12.2142H26.8088C25.731 12.2142 24.8564 11.3397 24.8564 10.2619C24.8564 9.18411 25.731 8.30957 26.8088 8.30957H29.9928C31.0706 8.30957 31.9451 9.18411 31.9451 10.2619C31.9451 11.3397 31.0706 12.2142 29.9928 12.2142Z" fill="white"/>
<path d="M24.2345 6.62631C23.1568 6.62631 22.2822 5.75177 22.2822 4.67399C22.2822 3.59622 23.1568 2.72168 24.2345 2.72168C25.3123 2.72168 26.1869 3.59622 26.1869 4.67399C26.1853 5.75177 25.3123 6.62631 24.2345 6.62631Z" fill="white"/>
<path d="M24.2345 28.9827C23.1568 28.9827 22.2822 28.1082 22.2822 27.0304C22.2822 25.9527 23.1568 25.0781 24.2345 25.0781C25.3123 25.0781 26.1869 25.9527 26.1869 27.0304C26.1853 28.1082 25.3123 28.9827 24.2345 28.9827Z" fill="white"/>
</svg>
