<svg width="107" height="29" viewBox="0 0 107 29" fill="none" xmlns="http://www.w3.org/2000/svg">
<path d="M56.8651 23.4958V28.9816H53.5733C51.2268 28.9816 49.3977 28.4089 48.0874 27.2603C46.7756 26.1132 46.1197 24.2394 46.1197 21.642V13.2415H43.5469V7.86802H46.1197V2.72241H52.5894V7.86802H56.8266V13.2415H52.5894V21.7174C52.5894 22.3487 52.7403 22.8029 53.0436 23.08C53.3469 23.3572 53.8504 23.4958 54.5571 23.4958H56.8651Z" fill="#000038"/>
<path d="M93.662 10.0255C95.214 11.6144 95.9885 13.8223 95.9885 16.6476V28.9835H89.5557V17.5191C89.5557 16.1565 89.1969 15.1033 88.4779 14.3597C87.7589 13.616 86.7689 13.2434 85.5079 13.2434C84.2469 13.2434 83.2569 13.616 82.5378 14.3597C81.8188 15.1033 81.4601 16.1565 81.4601 17.5191V28.9835H75.0273V17.5191C75.0273 16.1565 74.6685 15.1033 73.9495 14.3597C73.2305 13.616 72.2405 13.2434 70.9795 13.2434C69.7185 13.2434 68.7284 13.616 68.0094 14.3597C67.2904 15.1033 66.9316 16.1565 66.9316 17.5191V28.9835H60.4619V7.86837H66.9316V10.5166C67.5875 9.63439 68.4452 8.93383 69.5045 8.4165C70.5638 7.89917 71.7616 7.6405 73.0996 7.6405C74.6885 7.6405 76.1081 7.98077 77.3568 8.66285C78.6055 9.34339 79.5832 10.3149 80.2899 11.5759C81.0212 10.4165 82.0174 9.46964 83.2784 8.73829C84.5394 8.00695 85.9143 7.6405 87.4032 7.6405C90.0238 7.6405 92.1116 8.43498 93.662 10.0255Z" fill="#000038"/>
<path d="M107 7.87036V28.984H100.53V7.87036H107Z" fill="#000038"/>
<path d="M103.765 0C105.551 0 107 1.44884 107 3.23487C107 5.0209 105.551 6.46973 103.765 6.46973C101.979 6.46973 100.53 5.0209 100.53 3.23487C100.529 1.44884 101.978 0 103.765 0Z" fill="#ED1276"/>
<path d="M15.8127 19.4886H29.9931C31.0709 19.4886 31.9454 20.3632 31.9454 21.441C31.9454 22.5187 31.0709 23.3933 29.9931 23.3933H15.8127C14.7349 23.3933 13.8604 22.5187 13.8604 21.441C13.8619 20.3616 14.7349 19.4886 15.8127 19.4886Z" fill="#F4721C"/>
<path d="M7.35173 19.4886H10.5358C11.6136 19.4886 12.4881 20.3632 12.4881 21.441C12.4881 22.5187 11.6136 23.3933 10.5358 23.3933H7.35173C6.27395 23.3933 5.39941 22.5187 5.39941 21.441C5.40095 20.3616 6.27395 19.4886 7.35173 19.4886Z" fill="#FFD708"/>
<path d="M35.4049 17.8037H1.95231C0.874538 17.8037 0 16.9291 0 15.8514C0 14.7736 0.874538 13.899 1.95231 13.899H35.4049C36.4827 13.899 37.3572 14.7736 37.3572 15.8514C37.3557 16.9291 36.4827 17.8037 35.4049 17.8037Z" fill="url(#paint0_linear)"/>
<path d="M21.5322 12.2141H7.35173C6.27395 12.2141 5.39941 11.3395 5.39941 10.2618C5.39941 9.18399 6.27395 8.30945 7.35173 8.30945H21.5322C22.6099 8.30945 23.4845 9.18399 23.4845 10.2618C23.4845 11.3395 22.6099 12.2141 21.5322 12.2141Z" fill="#ED1276"/>
<path d="M13.112 6.62582C12.0342 6.62582 11.1597 5.75128 11.1597 4.6735C11.1597 3.59573 12.0342 2.72119 13.112 2.72119C14.1898 2.72119 15.0643 3.59573 15.0643 4.6735C15.0628 5.75128 14.1898 6.62582 13.112 6.62582Z" fill="#ED1276"/>
<path d="M13.112 28.983C12.0342 28.983 11.1597 28.1085 11.1597 27.0307C11.1597 25.9529 12.0342 25.0784 13.112 25.0784C14.1898 25.0784 15.0643 25.9529 15.0643 27.0307C15.0628 28.1085 14.1898 28.983 13.112 28.983Z" fill="#ED1276"/>
<path d="M29.9928 12.2141H26.8088C25.731 12.2141 24.8564 11.3395 24.8564 10.2618C24.8564 9.18399 25.731 8.30945 26.8088 8.30945H29.9928C31.0706 8.30945 31.9451 9.18399 31.9451 10.2618C31.9451 11.3395 31.0706 12.2141 29.9928 12.2141Z" fill="#2493D8"/>
<path d="M24.2345 6.62582C23.1568 6.62582 22.2822 5.75128 22.2822 4.6735C22.2822 3.59573 23.1568 2.72119 24.2345 2.72119C25.3123 2.72119 26.1869 3.59573 26.1869 4.6735C26.1853 5.75128 25.3123 6.62582 24.2345 6.62582Z" fill="#2493D8"/>
<path d="M24.2345 28.983C23.1568 28.983 22.2822 28.1085 22.2822 27.0307C22.2822 25.9529 23.1568 25.0784 24.2345 25.0784C25.3123 25.0784 26.1869 25.9529 26.1869 27.0307C26.1853 28.1085 25.3123 28.983 24.2345 28.983Z" fill="#2493D8"/>
<defs>
<linearGradient id="paint0_linear" x1="0" y1="15.8516" x2="37.3559" y2="15.8516" gradientUnits="userSpaceOnUse">
<stop offset="0.00446934" stop-color="#FFD708"/>
<stop offset="0.1955" stop-color="#FFD309"/>
<stop offset="0.3964" stop-color="#FDC60B"/>
<stop offset="0.6019" stop-color="#FBB110"/>
<stop offset="0.8091" stop-color="#F89415"/>
<stop offset="1" stop-color="#F4721C"/>
</linearGradient>
</defs>
</svg>
